<svg xmlns="http://www.w3.org/2000/svg" width="1440" height="1840" viewBox="0 0 1440 1840">
<title>Programs Screen</title>
<rect width="1440" height="1840" fill="#F5F0E6"/>
<circle cx="1360" cy="120" r="220" fill="#E5C37A" opacity="0.32"/>
<circle cx="86" cy="1750" r="180" fill="#B8C8C1" opacity="0.24"/>
<text x="92" y="74" fill="#16463F" font-family="Georgia" font-size="24" font-weight="700" text-anchor="start"><tspan x="92" dy="0">Humanity First</tspan></text><text x="92" y="96" fill="#746B64" font-family="Arial" font-size="14" font-weight="700" text-anchor="start"><tspan x="92" dy="0">Initiative</tspan></text><text x="520" y="78" fill="#746B64" font-family="Arial" font-size="15" font-weight="600" text-anchor="start"><tspan x="520" dy="0">Home</tspan></text><text x="615" y="78" fill="#746B64" font-family="Arial" font-size="15" font-weight="600" text-anchor="start"><tspan x="615" dy="0">About</tspan></text><text x="720" y="78" fill="#746B64" font-family="Arial" font-size="15" font-weight="600" text-anchor="start"><tspan x="720" dy="0">Projects</tspan></text><text x="836" y="78" fill="#16463F" font-family="Arial" font-size="15" font-weight="700" text-anchor="start"><tspan x="836" dy="0">Programs</tspan></text><text x="960" y="78" fill="#746B64" font-family="Arial" font-size="15" font-weight="600" text-anchor="start"><tspan x="960" dy="0">Donate</tspan></text><text x="1064" y="78" fill="#746B64" font-family="Arial" font-size="15" font-weight="600" text-anchor="start"><tspan x="1064" dy="0">Get Involved</tspan></text><rect x="1210" y="50" width="138" height="48" rx="24" fill="#16463F" stroke-width="1.5"/><text x="1279.0" y="80" fill="#FFFDF8" font-family="Arial" font-size="15" font-weight="700" text-anchor="middle"><tspan x="1279.0" dy="0">Donate Now</tspan></text><text x="84" y="150" fill="#C96D47" font-family="Arial" font-size="13" font-weight="700" text-anchor="start"><tspan x="84" dy="0">PROGRAMS HUB</tspan></text><text x="84" y="184" fill="#1E1A18" font-family="Georgia" font-size="34" font-weight="700" text-anchor="start"><tspan x="84" dy="0">One flexible system for four different</tspan><tspan x="84" dy="45.9">forms of impact.</tspan></text><text x="84" y="260" fill="#746B64" font-family="Arial" font-size="16" font-weight="400" text-anchor="start"><tspan x="84" dy="0">The programs page is designed like a structured content hub, giving each pillar its</tspan><tspan x="84" dy="21.6">own identity while still feeling part of one coherent mission.</tspan></text><rect x="84" y="286" width="112" height="38" rx="19" fill="#16463F" stroke-width="1"/><text x="140.0" y="310" fill="#FFFDF8" font-family="Arial" font-size="14" font-weight="700" text-anchor="middle"><tspan x="140.0" dy="0">Education</tspan></text><rect x="210" y="286" width="132" height="38" rx="19" fill="#FFFDF8" stroke-width="1"/><text x="276.0" y="310" fill="#16463F" font-family="Arial" font-size="14" font-weight="700" text-anchor="middle"><tspan x="276.0" dy="0">Arts &amp; Music</tspan></text><rect x="356" y="286" width="138" height="38" rx="19" fill="#FFFDF8" stroke-width="1"/><text x="425.0" y="310" fill="#16463F" font-family="Arial" font-size="14" font-weight="700" text-anchor="middle"><tspan x="425.0" dy="0">Public Health</tspan></text><rect x="508" y="286" width="98" height="38" rx="19" fill="#FFFDF8" stroke-width="1"/><text x="557.0" y="310" fill="#16463F" font-family="Arial" font-size="14" font-weight="700" text-anchor="middle"><tspan x="557.0" dy="0">Sports</tspan></text><rect x="90" y="390" width="634" height="360" rx="28" fill="#D9D1C3" stroke-width="1" opacity="0.35"/><rect x="84" y="380" width="634" height="360" rx="28" fill="#E4ECE9" stroke="#D8D0C3" stroke-width="1"/><text x="118" y="438" fill="#16463F" font-family="Georgia" font-size="30" font-weight="700" text-anchor="start"><tspan x="118" dy="0">Education Access</tspan></text><text x="118" y="488" fill="#746B64" font-family="Arial" font-size="16" font-weight="400" text-anchor="start"><tspan x="118" dy="0">Downloadables, digital skills,</tspan><tspan x="118" dy="21.6">lessons, and practical resources.</tspan></text><rect x="118" y="558" width="260" height="126" rx="24" fill="#FFFDF8" stroke-width="1"/><text x="140" y="600" fill="#16463F" font-family="Georgia" font-size="22" font-weight="700" text-anchor="start"><tspan x="140" dy="0">Coding lessons /</tspan><tspan x="140" dy="29.7">resource packs</tspan></text><text x="140" y="642" fill="#746B64" font-family="Arial" font-size="14" font-weight="400" text-anchor="start"><tspan x="140" dy="0">Use this tile for a</tspan><tspan x="140" dy="18.9">lesson card, campaign</tspan><tspan x="140" dy="18.9">pack, or embedded</tspan><tspan x="140" dy="18.9">resource link.</tspan></text><rect x="414" y="414" width="272" height="270" rx="28" fill="#16463F" stroke-width="1"/><rect x="432" y="432" width="236" height="234" rx="22" fill="#FFFDF8" stroke-width="1" opacity="0.18"/><circle cx="616" cy="474" r="28" fill="#E5C37A" opacity="0.7"/><circle cx="472" cy="620" r="20" fill="#FFFDF8" opacity="0.55"/><text x="442" y="648" fill="#FFFDF8" font-family="Arial" font-size="16" font-weight="700" text-anchor="start"><tspan x="442" dy="0">Coding lessons /</tspan><tspan x="442" dy="21.6">resource packs</tspan></text><rect x="118" y="694" width="128" height="38" rx="19" fill="#16463F" stroke-width="1"/><text x="182.0" y="718" fill="#FFFDF8" font-family="Arial" font-size="14" font-weight="700" text-anchor="middle"><tspan x="182.0" dy="0">Open program</tspan></text><rect x="728" y="390" width="634" height="360" rx="28" fill="#D9D1C3" stroke-width="1" opacity="0.35"/><rect x="722" y="380" width="634" height="360" rx="28" fill="#F9EFEA" stroke="#D8D0C3" stroke-width="1"/><text x="756" y="438" fill="#16463F" font-family="Georgia" font-size="30" font-weight="700" text-anchor="start"><tspan x="756" dy="0">Arts &amp; Music</tspan><tspan x="756" dy="40.5">Advocacy</tspan></text><text x="756" y="488" fill="#746B64" font-family="Arial" font-size="16" font-weight="400" text-anchor="start"><tspan x="756" dy="0">Image galleries, spoken word,</tspan><tspan x="756" dy="21.6">campaign storytelling, and artist</tspan><tspan x="756" dy="21.6">spotlights.</tspan></text><rect x="756" y="558" width="260" height="126" rx="24" fill="#FFFDF8" stroke-width="1"/><text x="778" y="600" fill="#16463F" font-family="Georgia" font-size="22" font-weight="700" text-anchor="start"><tspan x="778" dy="0">Creative campaign</tspan><tspan x="778" dy="29.7">showcase</tspan></text><text x="778" y="642" fill="#746B64" font-family="Arial" font-size="14" font-weight="400" text-anchor="start"><tspan x="778" dy="0">Use this tile for a</tspan><tspan x="778" dy="18.9">lesson card, campaign</tspan><tspan x="778" dy="18.9">pack, or embedded</tspan><tspan x="778" dy="18.9">resource link.</tspan></text><rect x="1052" y="414" width="272" height="270" rx="28" fill="#C96D47" stroke-width="1"/><rect x="1070" y="432" width="236" height="234" rx="22" fill="#FFFDF8" stroke-width="1" opacity="0.18"/><circle cx="1254" cy="474" r="28" fill="#E5C37A" opacity="0.7"/><circle cx="1110" cy="620" r="20" fill="#FFFDF8" opacity="0.55"/><text x="1080" y="648" fill="#FFFDF8" font-family="Arial" font-size="16" font-weight="700" text-anchor="start"><tspan x="1080" dy="0">Creative campaign</tspan><tspan x="1080" dy="21.6">showcase</tspan></text><rect x="756" y="694" width="128" height="38" rx="19" fill="#16463F" stroke-width="1"/><text x="820.0" y="718" fill="#FFFDF8" font-family="Arial" font-size="14" font-weight="700" text-anchor="middle"><tspan x="820.0" dy="0">Open program</tspan></text><rect x="90" y="810" width="634" height="360" rx="28" fill="#D9D1C3" stroke-width="1" opacity="0.35"/><rect x="84" y="800" width="634" height="360" rx="28" fill="#EEF5F0" stroke="#D8D0C3" stroke-width="1"/><text x="118" y="858" fill="#16463F" font-family="Georgia" font-size="30" font-weight="700" text-anchor="start"><tspan x="118" dy="0">Public Health &amp;</tspan><tspan x="118" dy="40.5">Safety</tspan></text><text x="118" y="908" fill="#746B64" font-family="Arial" font-size="16" font-weight="400" text-anchor="start"><tspan x="118" dy="0">Preventive health education,</tspan><tspan x="118" dy="21.6">outreach reporting, toolkits, and</tspan><tspan x="118" dy="21.6">campaigns.</tspan></text><rect x="118" y="978" width="260" height="126" rx="24" fill="#FFFDF8" stroke-width="1"/><text x="140" y="1020" fill="#16463F" font-family="Georgia" font-size="22" font-weight="700" text-anchor="start"><tspan x="140" dy="0">Health guide /</tspan><tspan x="140" dy="29.7">awareness asset</tspan></text><text x="140" y="1062" fill="#746B64" font-family="Arial" font-size="14" font-weight="400" text-anchor="start"><tspan x="140" dy="0">Use this tile for a</tspan><tspan x="140" dy="18.9">lesson card, campaign</tspan><tspan x="140" dy="18.9">pack, or embedded</tspan><tspan x="140" dy="18.9">resource link.</tspan></text><rect x="414" y="834" width="272" height="270" rx="28" fill="#16463F" stroke-width="1"/><rect x="432" y="852" width="236" height="234" rx="22" fill="#FFFDF8" stroke-width="1" opacity="0.18"/><circle cx="616" cy="894" r="28" fill="#E5C37A" opacity="0.7"/><circle cx="472" cy="1040" r="20" fill="#FFFDF8" opacity="0.55"/><text x="442" y="1068" fill="#FFFDF8" font-family="Arial" font-size="16" font-weight="700" text-anchor="start"><tspan x="442" dy="0">Health guide / awareness</tspan><tspan x="442" dy="21.6">asset</tspan></text><rect x="118" y="1114" width="128" height="38" rx="19" fill="#16463F" stroke-width="1"/><text x="182.0" y="1138" fill="#FFFDF8" font-family="Arial" font-size="14" font-weight="700" text-anchor="middle"><tspan x="182.0" dy="0">Open program</tspan></text><rect x="728" y="810" width="634" height="360" rx="28" fill="#D9D1C3" stroke-width="1" opacity="0.35"/><rect x="722" y="800" width="634" height="360" rx="28" fill="#FBF3E5" stroke="#D8D0C3" stroke-width="1"/><text x="756" y="858" fill="#16463F" font-family="Georgia" font-size="30" font-weight="700" text-anchor="start"><tspan x="756" dy="0">Sports Development</tspan></text><text x="756" y="908" fill="#746B64" font-family="Arial" font-size="16" font-weight="400" text-anchor="start"><tspan x="756" dy="0">Grassroots programs, drills,</tspan><tspan x="756" dy="21.6">tournaments, and youth talent</tspan><tspan x="756" dy="21.6">spotlights.</tspan></text><rect x="756" y="978" width="260" height="126" rx="24" fill="#FFFDF8" stroke-width="1"/><text x="778" y="1020" fill="#16463F" font-family="Georgia" font-size="22" font-weight="700" text-anchor="start"><tspan x="778" dy="0">Training program</tspan><tspan x="778" dy="29.7">/ athlete feature</tspan></text><text x="778" y="1062" fill="#746B64" font-family="Arial" font-size="14" font-weight="400" text-anchor="start"><tspan x="778" dy="0">Use this tile for a</tspan><tspan x="778" dy="18.9">lesson card, campaign</tspan><tspan x="778" dy="18.9">pack, or embedded</tspan><tspan x="778" dy="18.9">resource link.</tspan></text><rect x="1052" y="834" width="272" height="270" rx="28" fill="#C96D47" stroke-width="1"/><rect x="1070" y="852" width="236" height="234" rx="22" fill="#FFFDF8" stroke-width="1" opacity="0.18"/><circle cx="1254" cy="894" r="28" fill="#E5C37A" opacity="0.7"/><circle cx="1110" cy="1040" r="20" fill="#FFFDF8" opacity="0.55"/><text x="1080" y="1068" fill="#FFFDF8" font-family="Arial" font-size="16" font-weight="700" text-anchor="start"><tspan x="1080" dy="0">Training program /</tspan><tspan x="1080" dy="21.6">athlete feature</tspan></text><rect x="756" y="1114" width="128" height="38" rx="19" fill="#16463F" stroke-width="1"/><text x="820.0" y="1138" fill="#FFFDF8" font-family="Arial" font-size="14" font-weight="700" text-anchor="middle"><tspan x="820.0" dy="0">Open program</tspan></text><text x="84" y="1282" fill="#C96D47" font-family="Arial" font-size="13" font-weight="700" text-anchor="start"><tspan x="84" dy="0">CROSS-PROGRAM CAMPAIGN BANNER</tspan></text><text x="84" y="1316" fill="#1E1A18" font-family="Georgia" font-size="34" font-weight="700" text-anchor="start"><tspan x="84" dy="0">Show how the pillars work</tspan><tspan x="84" dy="45.9">together.</tspan></text><text x="84" y="1392" fill="#746B64" font-family="Arial" font-size="16" font-weight="400" text-anchor="start"><tspan x="84" dy="0">A shared campaign block helps the platform feel integrated,</tspan><tspan x="84" dy="21.6">especially when education, health, sports, and arts overlap</tspan><tspan x="84" dy="21.6">around one social issue.</tspan></text><rect x="90" y="1478" width="1270" height="258" rx="32" fill="#D9D1C3" stroke-width="1" opacity="0.35"/><rect x="84" y="1468" width="1270" height="258" rx="32" fill="#FFFDF8" stroke="#D8D0C3" stroke-width="1"/><rect x="104" y="1492" width="324" height="206" rx="28" fill="#2E6159" stroke-width="1"/><rect x="122" y="1510" width="288" height="170" rx="22" fill="#FFFDF8" stroke-width="1" opacity="0.18"/><circle cx="358" cy="1552" r="28" fill="#E5C37A" opacity="0.7"/><circle cx="162" cy="1634" r="20" fill="#FFFDF8" opacity="0.55"/><text x="132" y="1662" fill="#FFFDF8" font-family="Arial" font-size="16" font-weight="700" text-anchor="start"><tspan x="132" dy="0">Campaign art direction</tspan></text><text x="462" y="1546" fill="#1E1A18" font-family="Georgia" font-size="34" font-weight="700" text-anchor="start"><tspan x="462" dy="0">Campaign example: Safe futures</tspan><tspan x="462" dy="45.9">for girls and young families</tspan></text><text x="462" y="1620" fill="#746B64" font-family="Arial" font-size="17" font-weight="400" text-anchor="start"><tspan x="462" dy="0">Combine awareness content, field reporting, educational downloads,</tspan><tspan x="462" dy="23.0">music-led advocacy, and donor pathways in one narrative block.</tspan></text><rect x="462" y="1680" width="156" height="48" rx="24" fill="#16463F" stroke-width="1.5"/><text x="540.0" y="1710" fill="#FFFDF8" font-family="Arial" font-size="15" font-weight="700" text-anchor="middle"><tspan x="540.0" dy="0">View Campaign</tspan></text>
</svg>
