<svg xmlns="http://www.w3.org/2000/svg" width="390" height="1760" viewBox="0 0 390 1760">
<title>Mobile Home Screen</title>
<rect width="390" height="1760" fill="#F5F0E6"/>
<circle cx="330" cy="90" r="90" fill="#E5C37A" opacity="0.28"/>
<text x="26" y="54" fill="#16463F" font-family="Georgia" font-size="20" font-weight="700" text-anchor="start"><tspan x="26" dy="0">Humanity First</tspan></text><text x="26" y="88" fill="#746B64" font-family="Arial" font-size="12" font-weight="700" text-anchor="start"><tspan x="26" dy="0">Initiative</tspan></text><rect x="310" y="34" width="54" height="44" rx="18" fill="#FFFDF8" stroke="#D8D0C3" stroke-width="1"/><line x1="326" y1="49" x2="348" y2="49" stroke="#16463F" stroke-width="2" stroke-linecap="round"/><line x1="326" y1="58" x2="348" y2="58" stroke="#16463F" stroke-width="2" stroke-linecap="round"/><line x1="326" y1="67" x2="348" y2="67" stroke="#16463F" stroke-width="2" stroke-linecap="round"/><rect x="18" y="112" width="354" height="348" rx="28" fill="#FFFDF8" stroke-width="1"/><rect x="36" y="134" width="146" height="38" rx="19" fill="#E4ECE9" stroke-width="1"/><text x="109.0" y="158" fill="#16463F" font-family="Arial" font-size="14" font-weight="700" text-anchor="middle"><tspan x="109.0" dy="0">Impact across</tspan><tspan x="109.0" dy="18.9">Africa</tspan></text><text x="36" y="194" fill="#1E1A18" font-family="Georgia" font-size="34" font-weight="700" text-anchor="start"><tspan x="36" dy="0">Humanitarian</tspan><tspan x="36" dy="45.9">work that feels</tspan><tspan x="36" dy="45.9">credible and</tspan><tspan x="36" dy="45.9">close.</tspan></text><text x="36" y="300" fill="#746B64" font-family="Arial" font-size="15" font-weight="400" text-anchor="start"><tspan x="36" dy="0">A mobile-first landing page for</tspan><tspan x="36" dy="20.2">storytelling, donations, health</tspan><tspan x="36" dy="20.2">awareness, education, arts, and</tspan><tspan x="36" dy="20.2">sports.</tspan></text><rect x="36" y="372" width="110" height="48" rx="24" fill="#16463F" stroke-width="1.5"/><text x="91.0" y="402" fill="#FFFDF8" font-family="Arial" font-size="15" font-weight="700" text-anchor="middle"><tspan x="91.0" dy="0">Donate</tspan></text><rect x="160" y="372" width="120" height="48" rx="24" fill="#FFFDF8" stroke="#16463F" stroke-width="1.5"/><text x="220.0" y="402" fill="#16463F" font-family="Arial" font-size="15" font-weight="700" text-anchor="middle"><tspan x="220.0" dy="0">Projects</tspan></text><rect x="24" y="502" width="168" height="112" rx="24" fill="#D9D1C3" stroke-width="1" opacity="0.35"/><rect x="18" y="492" width="168" height="112" rx="24" fill="#FFFDF8" stroke="#D8D0C3" stroke-width="1"/><text x="42" y="536" fill="#16463F" font-family="Georgia" font-size="30" font-weight="700" text-anchor="start"><tspan x="42" dy="0">24</tspan></text><text x="42" y="570" fill="#746B64" font-family="Arial" font-size="14" font-weight="400" text-anchor="start"><tspan x="42" dy="0">Projects</tspan></text><rect x="210" y="502" width="168" height="112" rx="24" fill="#D9D1C3" stroke-width="1" opacity="0.35"/><rect x="204" y="492" width="168" height="112" rx="24" fill="#FFFDF8" stroke="#D8D0C3" stroke-width="1"/><text x="228" y="536" fill="#16463F" font-family="Georgia" font-size="30" font-weight="700" text-anchor="start"><tspan x="228" dy="0">4</tspan></text><text x="228" y="570" fill="#746B64" font-family="Arial" font-size="14" font-weight="400" text-anchor="start"><tspan x="228" dy="0">Core pillars</tspan></text><text x="22" y="660" fill="#C96D47" font-family="Arial" font-size="14" font-weight="700" text-anchor="start"><tspan x="22" dy="0">Program highlights</tspan></text><rect x="24" y="706" width="354" height="118" rx="24" fill="#D9D1C3" stroke-width="1" opacity="0.35"/><rect x="18" y="696" width="354" height="118" rx="24" fill="#E4ECE9" stroke="#D8D0C3" stroke-width="1"/><text x="38" y="740" fill="#16463F" font-family="Georgia" font-size="24" font-weight="700" text-anchor="start"><tspan x="38" dy="0">Education</tspan></text><text x="152" y="738" fill="#746B64" font-family="Arial" font-size="14" font-weight="400" text-anchor="start"><tspan x="152" dy="0">Books, digital skills,</tspan><tspan x="152" dy="18.9">and lessons.</tspan></text><rect x="24" y="844" width="354" height="118" rx="24" fill="#D9D1C3" stroke-width="1" opacity="0.35"/><rect x="18" y="834" width="354" height="118" rx="24" fill="#EEF5F0" stroke="#D8D0C3" stroke-width="1"/><text x="38" y="878" fill="#16463F" font-family="Georgia" font-size="24" font-weight="700" text-anchor="start"><tspan x="38" dy="0">Health</tspan></text><text x="152" y="876" fill="#746B64" font-family="Arial" font-size="14" font-weight="400" text-anchor="start"><tspan x="152" dy="0">Prevention, safety, and</tspan><tspan x="152" dy="18.9">outreach content.</tspan></text><rect x="24" y="982" width="354" height="118" rx="24" fill="#D9D1C3" stroke-width="1" opacity="0.35"/><rect x="18" y="972" width="354" height="118" rx="24" fill="#F9EFEA" stroke="#D8D0C3" stroke-width="1"/><text x="38" y="1016" fill="#16463F" font-family="Georgia" font-size="24" font-weight="700" text-anchor="start"><tspan x="38" dy="0">Arts</tspan></text><text x="152" y="1014" fill="#746B64" font-family="Arial" font-size="14" font-weight="400" text-anchor="start"><tspan x="152" dy="0">Creative advocacy and</tspan><tspan x="152" dy="18.9">artist stories.</tspan></text><rect x="24" y="1120" width="354" height="118" rx="24" fill="#D9D1C3" stroke-width="1" opacity="0.35"/><rect x="18" y="1110" width="354" height="118" rx="24" fill="#FBF3E5" stroke="#D8D0C3" stroke-width="1"/><text x="38" y="1154" fill="#16463F" font-family="Georgia" font-size="24" font-weight="700" text-anchor="start"><tspan x="38" dy="0">Sports</tspan></text><text x="152" y="1152" fill="#746B64" font-family="Arial" font-size="14" font-weight="400" text-anchor="start"><tspan x="152" dy="0">Youth development and</tspan><tspan x="152" dy="18.9">talent visibility.</tspan></text><text x="22" y="1274" fill="#C96D47" font-family="Arial" font-size="14" font-weight="700" text-anchor="start"><tspan x="22" dy="0">Featured story</tspan></text><rect x="24" y="1320" width="354" height="260" rx="28" fill="#D9D1C3" stroke-width="1" opacity="0.35"/><rect x="18" y="1310" width="354" height="260" rx="28" fill="#FFFDF8" stroke="#D8D0C3" stroke-width="1"/><rect x="36" y="1332" width="318" height="116" rx="28" fill="#16463F" stroke-width="1"/><rect x="54" y="1350" width="282" height="80" rx="22" fill="#FFFDF8" stroke-width="1" opacity="0.18"/><circle cx="284" cy="1392" r="28" fill="#E5C37A" opacity="0.7"/><circle cx="94" cy="1384" r="20" fill="#FFFDF8" opacity="0.55"/><text x="64" y="1412" fill="#FFFDF8" font-family="Arial" font-size="16" font-weight="700" text-anchor="start"><tspan x="64" dy="0">Impact image</tspan></text><text x="36" y="1488" fill="#1E1A18" font-family="Georgia" font-size="26" font-weight="700" text-anchor="start"><tspan x="36" dy="0">Safe beginnings for</tspan><tspan x="36" dy="35.1">mothers and children</tspan></text><text x="36" y="1542" fill="#746B64" font-family="Arial" font-size="14" font-weight="400" text-anchor="start"><tspan x="36" dy="0">A mobile story card with room for one</tspan><tspan x="36" dy="18.9">result, one quote, and a clear</tspan><tspan x="36" dy="18.9">action.</tspan></text><rect x="18" y="1608" width="354" height="116" rx="26" fill="#16463F" stroke-width="1"/><text x="36" y="1652" fill="#FFFDF8" font-family="Georgia" font-size="26" font-weight="700" text-anchor="start"><tspan x="36" dy="0">Donate or get</tspan><tspan x="36" dy="35.1">involved</tspan></text><text x="36" y="1696" fill="#DDE8E4" font-family="Arial" font-size="13" font-weight="400" text-anchor="start"><tspan x="36" dy="0">Keep the primary action</tspan><tspan x="36" dy="17.6">visible near the bottom of the</tspan><tspan x="36" dy="17.6">first mobile concept.</tspan></text><rect x="244" y="1650" width="100" height="48" rx="24" fill="#FFFDF8" stroke="#16463F" stroke-width="1.5"/><text x="294.0" y="1680" fill="#16463F" font-family="Arial" font-size="15" font-weight="700" text-anchor="middle"><tspan x="294.0" dy="0">Act now</tspan></text>
</svg>
